<?xml version="1.0" encoding="UTF-8" standalone="no"?>
<svg
   xmlns:dc="http://purl.org/dc/elements/1.1/"
   xmlns:cc="http://creativecommons.org/ns#"
   xmlns:rdf="http://www.w3.org/1999/02/22-rdf-syntax-ns#"
   xmlns:svg="http://www.w3.org/2000/svg"
   xmlns="http://www.w3.org/2000/svg"
   id="svg21"
   xml:space="preserve"
   enable-background="new 0 0 86 86"
   viewBox="0 0 86 86"
   height="86px"
   width="86px"
   y="0px"
   x="0px"
   version="1.1"><metadata
   id="metadata27"><rdf:RDF><cc:Work
       rdf:about=""><dc:format>image/svg+xml</dc:format><dc:type
         rdf:resource="http://purl.org/dc/dcmitype/StillImage" /></cc:Work></rdf:RDF></metadata><defs
   id="defs25"><linearGradient
     id="SVGID_1_"
     gradientUnits="userSpaceOnUse"
     x1="655.90253"
     y1="85.232498"
     x2="740.37012"
     y2="0.76490003"
     gradientTransform="translate(-655.1376)">
		<stop
   offset="0"
   style="stop-color:#8c3c00;stop-opacity:1"
   id="stop3" />
		<stop
   offset="1"
   style="stop-color:#e6e600;stop-opacity:1"
   id="stop5" />
	</linearGradient><meshgradient
     y="16.832031"
     x="22.34375"
     gradientUnits="userSpaceOnUse"
     id="meshgradient4847"><meshrow
       id="meshrow4981"><meshpatch
         id="meshpatch4983"><stop
           id="stop4985"
           style="stop-color:#ffffff;stop-opacity:1"
           path="c 13.7708,0  8.09737,-5.14703  41.3125,0" /><stop
           id="stop4987"
           style="stop-color:#f1ff44;stop-opacity:1"
           path="c 2.38288,26.5003  4.19387,54.3349  0,52.3359" /><stop
           id="stop4989"
           style="stop-color:#ffffff;stop-opacity:1"
           path="c 0.145239,4.67045  -12.1006,5.90955  -41.3125,0" /><stop
           id="stop4991"
           style="stop-color:#f1ff44;stop-opacity:1"
           path="c -4.19387,-5.43557  -0.953153,-34.7  0,-52.3359" /></meshpatch></meshrow></meshgradient></defs>
<g
   display="none"
   id="Layer_2">
</g>
<path
   d="M 84.277,0.4 H 43 C 19.417,0.4 0.3,19.466 0.3,42.995 V 84.18 c 0,0.784 0.637,1.42 1.423,1.42 H 43 c 23.583,0 42.7,-19.076 42.7,-42.606 V 1.82 C 85.7,1.035 85.063,0.4 84.277,0.4 Z"
   id="path8"
   style="fill:url(#SVGID_1_)" />
<path
   id="rect4814"
   d="M 24.132812 16.832031 C 23.141564 16.832031 22.34375 17.629844 22.34375 18.621094 L 22.34375 67.378906 C 22.34375 68.370156 23.141564 69.167969 24.132812 69.167969 L 55.568359 69.167969 L 55.568359 23.169922 C 55.568359 23.059802 55.690661 22.933594 55.800781 22.933594 L 63.65625 22.933594 L 63.65625 18.621094 C 63.65625 17.629844 62.858437 16.832031 61.867188 16.832031 L 24.132812 16.832031 z M 56.630859 25.3125 L 56.630859 33.083984 L 63.65625 33.083984 L 63.65625 25.3125 L 56.630859 25.3125 z M 35.576172 27.708984 C 36.028652 27.734547 36.480804 27.825595 36.777344 27.96875 C 37.411304 28.285738 38.013668 28.878318 38.361328 29.542969 C 38.739698 30.279198 38.761722 31.485854 38.414062 32.191406 C 37.820982 33.408229 36.69523 34.143614 35.4375 34.164062 C 34.19 34.17429 33.044706 33.418455 32.441406 32.191406 C 32.103926 31.516531 32.115685 30.267247 32.453125 29.623047 C 32.933725 28.712986 33.53651 28.150972 34.375 27.833984 C 34.67153 27.721499 35.123692 27.683414 35.576172 27.708984 z M 45.095703 34.054688 C 45.095703 34.054688 47.233279 34.054321 48.738281 34.054688 L 48.744141 34.054688 C 50.132391 34.054938 51.501435 35.423276 51.912109 37.371094 C 51.927744 37.444644 51.93639 37.52248 51.949219 37.597656 C 51.993883 37.859385 52.025334 38.129028 52.033203 38.408203 C 52.033856 38.432026 52.03674 38.454582 52.037109 38.478516 C 52.037131 38.479838 52.037089 38.481099 52.037109 38.482422 C 52.039953 38.674779 52.033844 38.871429 52.017578 39.070312 C 51.984925 39.470738 51.911825 39.882249 51.792969 40.302734 C 51.667852 40.745559 51.52723 41.181901 51.375 41.613281 C 51.261839 41.936357 51.135115 42.253794 51.007812 42.570312 C 50.976274 42.648033 50.948395 42.727376 50.916016 42.804688 C 50.762822 43.17369 50.595702 43.535176 50.423828 43.894531 C 50.408168 43.927073 50.39276 43.959725 50.376953 43.992188 C 50.197676 44.362499 50.008989 44.726588 49.810547 45.085938 C 49.805623 45.094853 49.80181 45.104372 49.796875 45.113281 C 47.21731 49.769906 43.063293 53.476914 38.111328 55.558594 C 37.754506 55.708593 37.39413 55.851562 37.029297 55.984375 C 37.002356 55.99425 36.976203 56.005848 36.949219 56.015625 C 36.944771 56.017226 36.939996 56.017933 36.935547 56.019531 C 36.547718 56.158865 36.155887 56.290818 35.759766 56.410156 C 35.132481 56.599112 34.515459 56.681755 33.927734 56.679688 C 33.730543 56.678857 33.535629 56.669864 33.345703 56.650391 C 33.158453 56.631383 32.975881 56.602003 32.796875 56.566406 C 30.805395 56.17039 29.363281 54.79271 29.363281 53.40625 C 29.363281 53.40375 29.363281 53.402894 29.363281 53.400391 C 29.363305 51.911981 29.371094 49.916016 29.371094 49.916016 C 29.371094 49.916016 31.796109 49.304368 33.193359 48.953125 C 35.026813 48.492279 37.302334 49.232202 38.359375 50.814453 L 38.478516 51.033203 C 38.482856 51.030846 38.48785 51.029704 38.492188 51.027344 C 38.499586 51.040584 38.510588 51.053536 38.517578 51.066406 C 41.431611 49.483419 43.478462 47.583716 45.277344 44.923828 C 45.546202 44.534702 45.800111 44.135182 46.041016 43.726562 C 46.141302 43.56109 46.240952 43.39396 46.339844 43.222656 C 46.342444 43.217856 46.345056 43.213764 46.347656 43.208984 C 46.345456 43.207884 46.344397 43.206478 46.341797 43.205078 C 44.473991 42.198025 43.725011 39.860617 44.212891 37.935547 C 44.566709 36.539768 45.095703 34.054688 45.095703 34.054688 z M 35.572266 36.382812 C 36.024306 36.388484 36.480583 36.434641 36.939453 36.525391 C 38.565283 36.852603 40.305015 37.936209 41.296875 39.224609 C 41.889945 39.991515 42.545374 41.34201 42.708984 42.119141 C 42.852144 42.804243 42.901564 42.732407 41.746094 43.427734 C 40.897384 43.939004 39.773799 44.39889 38.505859 44.736328 C 37.616239 44.97151 37.339536 44.991723 35.478516 45.001953 C 33.556146 45.012181 33.372614 44.992421 32.339844 44.726562 C 31.041214 44.389125 30.029316 43.990705 29.160156 43.458984 C 27.881986 42.702305 27.901188 42.752324 28.361328 41.484375 C 29.515528 38.326004 32.408026 36.343112 35.572266 36.382812 z M 56.630859 36.546875 L 56.630859 44.318359 L 63.65625 44.318359 L 63.65625 36.546875 L 56.630859 36.546875 z M 56.630859 47.783203 L 56.630859 55.552734 L 63.65625 55.552734 L 63.65625 47.783203 L 56.630859 47.783203 z M 56.630859 59.017578 L 56.630859 66.789062 L 63.65625 66.789062 L 63.65625 59.017578 L 56.630859 59.017578 z "
   style="opacity:1;fill:url(#meshgradient4847);fill-opacity:1;fill-rule:nonzero;stroke:none;stroke-width:16.91356277;stroke-linecap:butt;stroke-linejoin:miter;stroke-miterlimit:4;stroke-dasharray:none;stroke-dashoffset:0;stroke-opacity:1;paint-order:normal" /></svg>